<!--?xml version="1.0" encoding="utf-8"?-->
<!-- Generator: Adobe Illustrator 24.1.1, SVG Export Plug-In . SVG Version: 6.00 Build 0)  -->
<svg version="1.1" xmlns="http://www.w3.org/2000/svg" xmlns:xlink="http://www.w3.org/1999/xlink" x="0px" y="0px" viewBox="0 0 512 512" style="width: 256px; height: 256px; opacity: 1;" xml:space="preserve">
<style type="text/css">
	.st0{fill:#CC1D65;}
	.st1{fill:#2EB8BD;}
	.st2{fill:#A5896A;}
	.st3{fill:#AF59D4;}
	.st4{fill:#374149;}
</style>
<g id="_x31_">
</g>
<g id="_x30_">
	<g>
		<path class="st0" d="M420.577,148.944H91.423c-7.91,0-14.351,6.52-14.351,14.43v137.694c0,7.914,6.441,14.434,14.351,14.434
			h25.293h85.64h48.718h144.214h25.289c7.914,0,14.352-6.519,14.352-14.434V163.374
			C434.929,155.464,428.491,148.944,420.577,148.944z M328.652,231.1l-22.809-9.234l-28.937,32.507l-14.43-11.949l-4.809-3.957
			l29.246-50.734c5.352-9.156,18.539-9.156,23.817,0l15.254,26.453l11.711,20.558L328.652,231.1z M419.413,299.986h-33.046
			l-68.964-119.39c-3.879-6.671-10.786-10.706-18.543-10.706c-7.754,0-14.738,4.035-18.617,10.706l-35.715,61.855l-17.855,30.766
			l-24.16-41.812c-3.957-6.746-10.859-10.778-18.617-10.778s-14.738,4.031-18.617,10.778l-39.645,68.581H92.587V164.46h326.826
			V299.986z M198.868,256.233l-9.543-3.879l-16.988,19.004l-8.301-6.902l-4.73-3.957l12.718-21.954
			c5.278-9.156,18.465-9.156,23.738,0l6.945,12.055l5.207,9.281L198.868,256.233z" style="fill: rgb(75, 75, 75);"></path>
		<path class="st0" d="M499.314,0.004H14.33L12.846,0v0.004h-0.16V512h486.629V0.004z M48.838,37.16
			c0-5.742,4.73-10.394,10.473-10.394c5.738,0,10.473,4.652,10.473,10.394c0,5.82-4.734,10.473-10.473,10.473
			C53.568,47.633,48.838,42.98,48.838,37.16z M87.47,37.16c0-5.742,4.73-10.394,10.472-10.394c5.738,0,10.473,4.652,10.473,10.394
			c0,5.82-4.734,10.473-10.473,10.473C92.201,47.633,87.47,42.98,87.47,37.16z M134.868,44.996V27.074
			c0-2.871,2.328-5.196,5.195-5.196h314.802c2.867,0,5.274,2.325,5.274,5.196v17.922c0,2.871-2.406,5.195-5.274,5.195H140.063
			C137.196,50.191,134.868,47.867,134.868,44.996z M483.799,105.19H29.431h-1.23V72.687h455.598V105.19z M483.799,496.485H28.201
			V112.948h455.598v382.525V496.485z" style="fill: rgb(75, 75, 75);"></path>
		<polygon class="st0" points="83.982,345.907 83.982,345.907 83.822,345.907 83.822,366.079 428.178,366.079 428.178,345.907 
			85.033,345.907 		" style="fill: rgb(75, 75, 75);"></polygon>
		<rect x="83.822" y="397.575" class="st0" width="204.022" height="20.168" style="fill: rgb(75, 75, 75);"></rect>
	</g>
</g>
<g id="_x31__1_">
	<g>
		<path class="st1" d="M420.577,148.944H91.423c-7.91,0-14.351,6.52-14.351,14.43v137.694c0,7.914,6.441,14.434,14.351,14.434
			h25.293h85.64h48.718h144.214h25.289c7.914,0,14.352-6.519,14.352-14.434V163.374
			C434.929,155.464,428.491,148.944,420.577,148.944z M328.652,231.1l-22.809-9.234l-28.937,32.507l-14.43-11.949l-4.809-3.957
			l29.246-50.734c5.352-9.156,18.539-9.156,23.817,0l15.254,26.453l11.711,20.558L328.652,231.1z M419.413,299.986h-33.046
			l-68.964-119.39c-3.879-6.671-10.786-10.706-18.543-10.706c-7.754,0-14.738,4.035-18.617,10.706l-35.715,61.855l-17.855,30.766
			l-24.16-41.812c-3.957-6.746-10.859-10.778-18.617-10.778s-14.738,4.031-18.617,10.778l-39.645,68.581H92.587V164.46h326.826
			V299.986z M198.868,256.233l-9.543-3.879l-16.988,19.004l-8.301-6.902l-4.73-3.957l12.718-21.954
			c5.278-9.156,18.465-9.156,23.738,0l6.945,12.055l5.207,9.281L198.868,256.233z"></path>
		<path class="st1" d="M499.314,0.004H14.33L12.846,0v0.004h-0.16V512h486.629V0.004z M48.838,37.16
			c0-5.742,4.73-10.394,10.473-10.394c5.738,0,10.473,4.652,10.473,10.394c0,5.82-4.734,10.473-10.473,10.473
			C53.568,47.633,48.838,42.98,48.838,37.16z M87.47,37.16c0-5.742,4.73-10.394,10.472-10.394c5.738,0,10.473,4.652,10.473,10.394
			c0,5.82-4.734,10.473-10.473,10.473C92.201,47.633,87.47,42.98,87.47,37.16z M134.868,44.996V27.074
			c0-2.871,2.328-5.196,5.195-5.196h314.802c2.867,0,5.274,2.325,5.274,5.196v17.922c0,2.871-2.406,5.195-5.274,5.195H140.063
			C137.196,50.191,134.868,47.867,134.868,44.996z M483.799,105.19H29.431h-1.23V72.687h455.598V105.19z M483.799,496.485H28.201
			V112.948h455.598v382.525V496.485z"></path>
		<polygon class="st1" points="83.982,345.907 83.982,345.907 83.822,345.907 83.822,366.079 428.178,366.079 428.178,345.907 
			85.033,345.907 		"></polygon>
		<rect x="83.822" y="397.575" class="st1" width="204.022" height="20.168"></rect>
	</g>
</g>
<g id="_x32_">
	<g>
		<path class="st2" d="M420.577,148.944H91.423c-7.91,0-14.351,6.52-14.351,14.43v137.694c0,7.914,6.441,14.434,14.351,14.434
			h25.293h85.64h48.718h144.214h25.289c7.914,0,14.352-6.519,14.352-14.434V163.374
			C434.929,155.464,428.491,148.944,420.577,148.944z M328.652,231.1l-22.809-9.234l-28.937,32.507l-14.43-11.949l-4.809-3.957
			l29.246-50.734c5.352-9.156,18.539-9.156,23.817,0l15.254,26.453l11.711,20.558L328.652,231.1z M419.413,299.986h-33.046
			l-68.964-119.39c-3.879-6.671-10.786-10.706-18.543-10.706c-7.754,0-14.738,4.035-18.617,10.706l-35.715,61.855l-17.855,30.766
			l-24.16-41.812c-3.957-6.746-10.859-10.778-18.617-10.778s-14.738,4.031-18.617,10.778l-39.645,68.581H92.587V164.46h326.826
			V299.986z M198.868,256.233l-9.543-3.879l-16.988,19.004l-8.301-6.902l-4.73-3.957l12.718-21.954
			c5.278-9.156,18.465-9.156,23.738,0l6.945,12.055l5.207,9.281L198.868,256.233z"></path>
		<path class="st2" d="M499.314,0.004H14.33L12.846,0v0.004h-0.16V512h486.629V0.004z M48.838,37.16
			c0-5.742,4.73-10.394,10.473-10.394c5.738,0,10.473,4.652,10.473,10.394c0,5.82-4.734,10.473-10.473,10.473
			C53.568,47.633,48.838,42.98,48.838,37.16z M87.47,37.16c0-5.742,4.73-10.394,10.472-10.394c5.738,0,10.473,4.652,10.473,10.394
			c0,5.82-4.734,10.473-10.473,10.473C92.201,47.633,87.47,42.98,87.47,37.16z M134.868,44.996V27.074
			c0-2.871,2.328-5.196,5.195-5.196h314.802c2.867,0,5.274,2.325,5.274,5.196v17.922c0,2.871-2.406,5.195-5.274,5.195H140.063
			C137.196,50.191,134.868,47.867,134.868,44.996z M483.799,105.19H29.431h-1.23V72.687h455.598V105.19z M483.799,496.485H28.201
			V112.948h455.598v382.525V496.485z"></path>
		<polygon class="st2" points="83.982,345.907 83.982,345.907 83.822,345.907 83.822,366.079 428.178,366.079 428.178,345.907 
			85.033,345.907 		"></polygon>
		<rect x="83.822" y="397.575" class="st2" width="204.022" height="20.168"></rect>
	</g>
</g>
<g id="_x33_">
	<g>
		<path class="st3" d="M420.577,148.944H91.423c-7.91,0-14.351,6.52-14.351,14.43v137.694c0,7.914,6.441,14.434,14.351,14.434
			h25.293h85.64h48.718h144.214h25.289c7.914,0,14.352-6.519,14.352-14.434V163.374
			C434.929,155.464,428.491,148.944,420.577,148.944z M328.652,231.1l-22.809-9.234l-28.937,32.507l-14.43-11.949l-4.809-3.957
			l29.246-50.734c5.352-9.156,18.539-9.156,23.817,0l15.254,26.453l11.711,20.558L328.652,231.1z M419.413,299.986h-33.046
			l-68.964-119.39c-3.879-6.671-10.786-10.706-18.543-10.706c-7.754,0-14.738,4.035-18.617,10.706l-35.715,61.855l-17.855,30.766
			l-24.16-41.812c-3.957-6.746-10.859-10.778-18.617-10.778s-14.738,4.031-18.617,10.778l-39.645,68.581H92.587V164.46h326.826
			V299.986z M198.868,256.233l-9.543-3.879l-16.988,19.004l-8.301-6.902l-4.73-3.957l12.718-21.954
			c5.278-9.156,18.465-9.156,23.738,0l6.945,12.055l5.207,9.281L198.868,256.233z"></path>
		<path class="st3" d="M499.314,0.004H14.33L12.846,0v0.004h-0.16V512h486.629V0.004z M48.838,37.16
			c0-5.742,4.73-10.394,10.473-10.394c5.738,0,10.473,4.652,10.473,10.394c0,5.82-4.734,10.473-10.473,10.473
			C53.568,47.633,48.838,42.98,48.838,37.16z M87.47,37.16c0-5.742,4.73-10.394,10.472-10.394c5.738,0,10.473,4.652,10.473,10.394
			c0,5.82-4.734,10.473-10.473,10.473C92.201,47.633,87.47,42.98,87.47,37.16z M134.868,44.996V27.074
			c0-2.871,2.328-5.196,5.195-5.196h314.802c2.867,0,5.274,2.325,5.274,5.196v17.922c0,2.871-2.406,5.195-5.274,5.195H140.063
			C137.196,50.191,134.868,47.867,134.868,44.996z M483.799,105.19H29.431h-1.23V72.687h455.598V105.19z M483.799,496.485H28.201
			V112.948h455.598v382.525V496.485z"></path>
		<polygon class="st3" points="83.982,345.907 83.982,345.907 83.822,345.907 83.822,366.079 428.178,366.079 428.178,345.907 
			85.033,345.907 		"></polygon>
		<rect x="83.822" y="397.575" class="st3" width="204.022" height="20.168"></rect>
	</g>
</g>
<g id="_x31_5">
	<g>
		<path class="st4" d="M420.577,148.944H91.423c-7.91,0-14.351,6.52-14.351,14.43v137.694c0,7.914,6.441,14.434,14.351,14.434
			h25.293h85.64h48.718h144.214h25.289c7.914,0,14.352-6.519,14.352-14.434V163.374
			C434.929,155.464,428.491,148.944,420.577,148.944z M328.652,231.1l-22.809-9.234l-28.937,32.507l-14.43-11.949l-4.809-3.957
			l29.246-50.734c5.352-9.156,18.539-9.156,23.817,0l15.254,26.453l11.711,20.558L328.652,231.1z M419.413,299.986h-33.046
			l-68.964-119.39c-3.879-6.671-10.786-10.706-18.543-10.706c-7.754,0-14.738,4.035-18.617,10.706l-35.715,61.855l-17.855,30.766
			l-24.16-41.812c-3.957-6.746-10.859-10.778-18.617-10.778s-14.738,4.031-18.617,10.778l-39.645,68.581H92.587V164.46h326.826
			V299.986z M198.868,256.233l-9.543-3.879l-16.988,19.004l-8.301-6.902l-4.73-3.957l12.718-21.954
			c5.278-9.156,18.465-9.156,23.738,0l6.945,12.055l5.207,9.281L198.868,256.233z"></path>
		<path class="st4" d="M499.314,0.004H14.33L12.846,0v0.004h-0.16V512h486.629V0.004z M48.838,37.16
			c0-5.742,4.73-10.394,10.473-10.394c5.738,0,10.473,4.652,10.473,10.394c0,5.82-4.734,10.473-10.473,10.473
			C53.568,47.633,48.838,42.98,48.838,37.16z M87.47,37.16c0-5.742,4.73-10.394,10.472-10.394c5.738,0,10.473,4.652,10.473,10.394
			c0,5.82-4.734,10.473-10.473,10.473C92.201,47.633,87.47,42.98,87.47,37.16z M134.868,44.996V27.074
			c0-2.871,2.328-5.196,5.195-5.196h314.802c2.867,0,5.274,2.325,5.274,5.196v17.922c0,2.871-2.406,5.195-5.274,5.195H140.063
			C137.196,50.191,134.868,47.867,134.868,44.996z M483.799,105.19H29.431h-1.23V72.687h455.598V105.19z M483.799,496.485H28.201
			V112.948h455.598v382.525V496.485z"></path>
		<polygon class="st4" points="83.982,345.907 83.982,345.907 83.822,345.907 83.822,366.079 428.178,366.079 428.178,345.907 
			85.033,345.907 		"></polygon>
		<rect x="83.822" y="397.575" class="st4" width="204.022" height="20.168"></rect>
	</g>
</g>
</svg>
